<svg width="575" height="575" viewBox="0 0 575 575" fill="none" xmlns="http://www.w3.org/2000/svg">
<path d="M571.884 126.5H562.109C550.022 126.5 538.637 132.135 531.289 141.726L431.239 272.561L331.189 141.726C323.863 132.135 312.467 126.5 300.392 126.5H290.617L416.783 291.479L287.914 460H297.689C309.776 460 321.161 454.365 328.498 444.774L431.25 310.408L534.003 444.774C541.34 454.365 552.725 460 564.811 460H574.586L445.717 291.479L571.884 126.5ZM244.824 393.783C215.453 438.414 157.631 461.288 102.35 441.117C53.7165 423.372 23 375.026 23 323.253V310.5H161H287.5V262.959C287.5 188.151 232.093 122.659 157.608 115.655C72.1395 107.617 0 174.915 0 258.75V322.839C0 384.606 36.9725 442.025 95.0935 462.944C171.028 490.268 250.896 449.489 277.898 379.5H270.561C260.084 379.5 250.574 385.031 244.824 393.783ZM23 258.75C23 192.165 77.165 138 143.75 138C210.335 138 264.5 192.165 264.5 258.75V287.5H23V258.75Z" fill="black"/>
</svg>
