<svg width="575" height="575" viewBox="0 0 575 575" fill="none" xmlns="http://www.w3.org/2000/svg">
<path d="M287.395 53.9067C280.836 53.9067 274.279 55.5155 268.619 58.7499L90.5457 161.544C79.0457 168.192 71.875 180.78 71.875 194.077V380.573C71.875 394.05 79.0457 406.458 90.5457 413.106L137.292 440.059C159.933 451.2 168.006 451.185 178.249 451.185C211.85 451.185 231.067 430.883 231.067 395.664V203.237C231.067 200.362 228.748 198.008 225.873 198.008H203.412C200.357 198.008 198.183 200.362 198.183 203.237V395.488C198.183 411.301 181.851 426.75 155.437 413.633L106.549 385.416C104.752 384.518 103.671 382.55 103.671 380.573V194.253C103.671 192.096 104.752 190.277 106.549 189.199L284.622 86.44C286.239 85.3619 288.405 85.3619 290.202 86.44L468.275 189.199C470.072 190.277 471.153 192.1 471.153 194.077V380.573C471.153 382.55 470.068 384.518 468.451 385.416L290.202 488.385C288.585 489.284 286.239 489.284 284.622 488.385L238.788 461.257C237.53 460.358 235.764 460.187 234.506 460.906C221.748 468.093 219.412 468.986 207.553 473.119C204.678 474.018 200.183 475.809 209.167 480.84L268.619 516.076C274.369 519.31 280.856 521.094 287.325 521.094C293.973 521.094 300.421 519.31 306.171 516.076L484.454 413.106C495.954 406.458 503.125 394.05 503.125 380.573V194.253C503.125 180.776 495.954 168.368 484.454 161.719L306.171 58.7499C300.511 55.5155 293.953 53.9067 287.395 53.9067ZM335.3 197.762C284.448 197.762 254.089 219.31 254.089 255.248C254.089 294.24 284.249 305.005 333.124 309.856C391.522 315.606 396.014 324.256 396.014 335.756C396.014 355.522 380.049 363.973 342.494 363.973C295.236 363.973 284.807 352.097 281.393 328.737C281.034 326.222 278.89 324.421 276.375 324.421H253.177C250.302 324.421 248.158 326.779 248.158 329.474C248.158 359.482 264.51 395.208 342.494 395.208C398.916 395.208 431.25 372.955 431.25 334.142C431.25 295.689 405.191 285.427 350.566 278.06C295.043 270.872 289.465 267.098 289.465 254.16C289.465 243.379 294.331 229.207 335.3 229.207C371.776 229.207 385.425 237.088 390.996 261.706C391.535 264.041 393.499 265.847 396.014 265.847H419.212C420.65 265.847 421.889 265.135 422.968 264.057C423.866 263.158 424.411 261.708 424.231 260.091C420.637 217.685 392.44 197.762 335.3 197.762Z" fill="#73A960"/>
</svg>
