<svg width="316" height="575" viewBox="0 0 316 575" fill="none" xmlns="http://www.w3.org/2000/svg">
<path d="M216.365 64.0877C188.016 35.4551 163.604 6.37523 158.617 0.335538C158.092 -0.111846 157.305 -0.111846 156.78 0.335538C151.792 6.37523 127.381 35.4551 99.0318 64.0877C-144.296 328.267 137.356 506.55 137.356 506.55L139.718 507.893C141.818 535.406 147.068 575 147.068 575H157.567H168.067C168.067 575 173.317 535.629 175.417 507.893L177.779 506.327C178.041 506.55 459.693 328.267 216.365 64.0877ZM157.567 502.523C157.567 502.523 144.968 493.352 141.555 488.656V488.206L156.78 200.54C156.78 199.645 158.355 199.645 158.355 200.54L173.579 488.206V488.656C170.167 493.352 157.567 502.523 157.567 502.523Z" fill="#001E2B"/>
</svg>
