<svg width="575" height="575" viewBox="0 0 575 575" fill="none" xmlns="http://www.w3.org/2000/svg">
<g clip-path="url(#clip0_295_46)">
<path d="M287.5 0C446.272 0 575 128.728 575 287.5C575 446.272 446.272 575 287.5 575C128.728 575 0 446.272 0 287.5C0 128.728 128.728 0 287.5 0ZM230.359 383.285C234.552 398.739 234.097 413.185 229.784 426.219L228.227 430.531C227.652 431.993 226.981 433.406 226.358 434.748C223.004 441.696 218.548 448.165 213.061 454.154C196.339 472.339 173.003 479.239 162.989 473.441C152.207 467.164 157.574 441.456 176.98 420.972C197.848 398.978 227.772 384.819 227.772 384.819V384.747L230.359 383.285ZM467.81 123.074C454.825 71.9708 370.132 55.176 289.992 83.6625C242.339 100.601 190.708 127.219 153.597 161.934C109.442 203.167 102.422 239.104 105.321 254.126C115.551 307.098 188.145 341.742 217.997 367.449V367.593C209.204 371.905 144.78 404.225 129.686 437.671C113.515 472.89 132.202 498.07 144.421 501.28C182.155 511.726 220.968 492.655 241.811 461.773C261.936 431.561 260.164 392.749 251.491 373.702C263.374 370.468 277.366 369.03 295.334 371.21C345.671 376.96 355.733 408.585 353.553 421.523C351.397 434.436 341.023 441.983 337.405 444.14C333.811 446.32 332.733 447.015 333.069 448.476C333.428 450.632 335.249 450.632 338.1 450.273C342.053 449.554 364.358 439.492 365.436 415.03C366.515 384.124 337.022 349.648 284.577 350.343C263.015 350.726 249.334 352.523 239.655 356.476C238.936 355.398 238.194 354.679 237.14 353.96C204.796 319.101 144.78 294.664 147.296 248.304C148.015 231.414 154.124 186.875 262.296 132.969C351.061 88.7417 421.882 100.984 434.101 127.938C451.662 166.367 396.343 237.906 303.983 248.304C268.765 252.257 250.436 238.625 245.741 233.57C240.733 228.179 240.015 227.82 238.218 228.922C235.343 230.359 237.14 235.031 238.218 237.906C241.093 245.094 252.233 257.672 271.664 264.141C288.53 269.531 329.882 272.742 379.476 253.359C435.155 231.821 478.64 171.781 466.061 121.469L467.81 123.074Z" fill="#CF6C9C"/>
</g>
<defs>
<clipPath id="clip0_295_46">
<rect width="575" height="575" fill="white"/>
</clipPath>
</defs>
</svg>
