<svg width="575" height="575" viewBox="0 0 575 575" fill="none" xmlns="http://www.w3.org/2000/svg">
<path fill-rule="evenodd" clip-rule="evenodd" d="M161 104.578C161 74.6602 181.709 23 281.75 23C353.041 23 391 64.3281 391 104.578V253C391 272.541 376.041 287.5 356.5 287.5H218.5C193.209 287.5 172.5 308.209 172.5 333.5V402.5H104.578C66.6191 402.5 23 372.582 23 287.5C23 202.418 66.6191 172.5 104.578 172.5H276V161H161V104.578ZM253 103.5C253 90.832 242.668 80.5 230 80.5C217.332 80.5 207 90.832 207 103.5C207 116.168 217.332 126.5 230 126.5C242.668 126.5 253 116.168 253 103.5Z" fill="#4884B3"/>
<path fill-rule="evenodd" clip-rule="evenodd" d="M402.5 172.5V253C402.5 278.291 381.791 299 356.5 299H218.5C198.959 299 184 313.959 184 333.5V470.422C184 510.672 221.959 552 293.25 552C393.291 552 414 500.34 414 470.422V414H299V402.5H470.422C508.381 402.5 552 372.582 552 287.5C552 202.418 508.381 172.5 470.422 172.5H402.5ZM368 471.5C368 458.832 357.668 448.5 345 448.5C332.332 448.5 322 458.832 322 471.5C322 484.168 332.332 494.5 345 494.5C357.668 494.5 368 484.168 368 471.5Z" fill="#FFE161"/>
</svg>
