<svg width="575" height="575" viewBox="0 0 575 575" fill="none" xmlns="http://www.w3.org/2000/svg">
<path d="M498.363 46H76.6816C59.7461 46 46 59.7461 46 76.6816V498.318C46 515.254 59.7461 529 76.6816 529H498.318C515.254 529 529 515.254 529 498.363V76.6816C529 59.7461 515.254 46 498.363 46ZM310.5 416.111C310.5 462.066 283.547 483 244.195 483C208.617 483 182.967 459.146 172.5 437L208.662 415.123C215.625 427.477 226.227 437 241.5 437C256.1 437 264.5 431.295 264.5 409.104V264.5H310.5V416.111ZM410.271 483C369.527 483 346.393 462.471 333.5 437L368 414C377.389 429.363 387.631 444.053 409.283 444.053C427.477 444.053 437 434.979 437 422.4C437 407.396 427.117 402.051 407.127 393.291L396.166 388.574C364.496 375.098 343.428 358.207 343.428 322.449C343.428 289.566 368.539 264.5 407.711 264.5C435.607 264.5 455.643 274.203 470.107 299.629L435.967 321.596C428.42 308.074 420.334 302.773 407.711 302.773C394.863 302.773 386.732 310.949 386.732 321.596C386.732 334.758 394.863 340.059 413.686 348.234L424.646 352.951C461.977 368.898 483 385.205 483 421.861C483 461.348 451.959 483 410.271 483Z" fill="#F0DA1D"/>
</svg>
