<svg width="575" height="450" viewBox="0 0 575 450" fill="none" xmlns="http://www.w3.org/2000/svg">
<path d="M556.82 63.9031L575 6.84676L574.25 3.19516L395.078 60.708C414.195 26.9306 407.635 0 407.635 0C407.635 0 350.473 44.504 307.179 43.3628C263.885 42.2217 250.016 28.0717 183.67 53.8612C117.324 79.6507 98.5821 158.617 79.278 175.734C60.1613 192.622 0 248.994 0 248.994L54.3514 227.769C54.3514 227.769 38.9831 245.571 7.30932 297.378V297.606C12.3696 306.279 34.6724 342.11 56.7878 334.35C59.2243 333.437 62.0355 331.84 65.2216 330.014C75.1548 336.861 88.4615 343.479 102.893 345.305C102.893 345.305 93.147 331.612 84.9006 315.636L91.6477 310.387L90.5231 311.3L111.327 320.429L109.078 296.693H109.265L129.506 305.822L127.07 284.141L134.754 279.576L155.932 181.896L243.644 108.864L236.71 130.317C218.905 183.493 185.544 196.046 185.544 196.046L171.675 202.664C161.18 217.499 156.869 221.151 153.308 271.36C161.742 268.621 169.614 268.165 176.923 270.447C214.407 282.771 227.339 337.774 217.218 353.065C214.782 356.716 208.784 363.335 201.1 370.866H185.919L185.732 385.929L184.232 387.527H168.677L168.489 402.133L164.366 405.785C149.935 406.241 131.38 390.722 131.38 390.722C131.568 404.872 141.126 426.553 141.126 426.553L142.813 425.412L141.314 426.782C141.314 426.782 180.297 458.277 204.848 446.637C226.589 436.139 283.002 382.049 331.731 356.488L479.042 309.017L498.533 247.853L386.27 283.913V228.682L518.025 186.46L537.516 125.068L386.27 173.68V118.677L556.82 63.9031ZM289.374 180.526L324.421 169.343L324.796 171.397L313.926 205.859L277.754 217.499L289.374 180.526ZM301.369 254.243L265.197 265.883L277.005 228.91L311.864 217.727L312.427 219.781L301.369 254.243ZM348.598 241.919L312.427 253.559L324.234 216.586L359.094 205.403L359.656 207.457L348.598 241.919Z" fill="white"/>
</svg>
