<svg width="575" height="575" viewBox="0 0 575 575" fill="none" xmlns="http://www.w3.org/2000/svg">
<path fill-rule="evenodd" clip-rule="evenodd" d="M397.379 45.8205C388.413 45.519 379.027 47.0822 369.617 50.133C350.797 56.2345 331.076 68.1248 310.837 84.588C302.905 91.04 294.902 98.4152 286.871 106.24C279.018 98.6138 271.178 91.4366 263.422 85.1271C243.199 68.6771 223.531 56.7822 204.754 50.6945C185.977 44.6068 167.293 44.4181 151.948 53.2775C136.603 62.1368 127.427 78.3997 123.311 97.7052C119.194 117.011 119.647 140.001 123.782 165.739C125.218 174.68 127.267 184.059 129.6 193.613C120.832 196.271 112.317 199.065 104.421 202.149C80.5918 211.456 60.8746 222.59 46.5166 235.84C32.1586 249.09 22.8877 265.171 22.8877 282.828C22.8877 300.486 32.1586 316.544 46.5166 329.794C60.8746 343.044 80.5918 354.201 104.421 363.508C112.864 366.806 122.005 369.775 131.441 372.582C128.047 385.265 125.297 397.572 123.423 409.238C119.285 434.997 118.848 457.991 122.974 477.34C127.1 496.689 136.281 513.044 151.701 521.947C167.122 530.851 185.889 530.632 204.709 524.53C223.529 518.429 243.228 506.561 263.467 490.098C271.325 483.705 279.275 476.413 287.23 468.67C295.228 476.46 303.209 483.786 311.106 490.21C331.329 506.66 351.02 518.533 369.797 524.62C388.574 530.708 407.258 530.897 422.603 522.037C437.947 513.178 447.101 496.915 451.218 477.61C455.334 458.304 454.881 435.336 450.746 409.598C448.867 397.9 446.115 385.552 442.705 372.829C452.453 369.954 461.883 366.904 470.579 363.508C494.408 354.201 514.125 343.044 528.483 329.794C542.841 316.544 552.112 300.486 552.112 282.828C552.112 265.171 542.841 249.09 528.483 235.84C514.125 222.59 494.408 211.456 470.579 202.149C462.57 199.02 453.924 196.19 445.019 193.501C447.37 183.888 449.459 174.441 450.903 165.447C455.041 139.688 455.479 116.673 451.353 97.3234C447.227 77.9741 438.023 61.6416 422.603 52.7384C414.892 48.2869 406.345 46.1219 397.379 45.8205ZM396.323 69.2248C401.95 69.3786 406.75 70.7175 410.856 73.088C419.067 77.829 425.137 87.0562 428.375 102.242C431.613 117.428 431.501 137.946 427.679 161.741C426.37 169.888 424.47 178.523 422.311 187.369C398.787 181.708 373.011 177.507 345.539 175.038C331.748 155.932 317.577 138.527 303.29 123.086C310.847 115.709 318.355 108.81 325.684 102.849C344.379 87.6409 362.079 77.2927 376.85 72.504C384.235 70.1097 390.697 69.0709 396.323 69.2248ZM178.093 69.2921C183.752 69.1342 190.227 70.1702 197.634 72.5714C212.447 77.374 230.178 87.7175 248.89 102.939C256.071 108.78 263.411 115.548 270.812 122.749C256.419 138.316 242.131 155.873 228.248 175.151C200.892 177.664 175.221 181.888 151.813 187.571C149.671 178.774 147.77 170.184 146.468 162.078C142.642 138.263 142.546 117.742 145.794 102.512C149.041 87.2819 155.161 77.9851 163.448 73.2003C167.592 70.8079 172.434 69.4501 178.093 69.2921ZM287.23 139.64C296.599 149.834 305.969 160.99 315.262 172.994C306.13 172.614 296.887 172.388 287.5 172.388C277.926 172.388 268.507 172.621 259.199 173.017C268.495 161.004 277.86 149.842 287.23 139.64ZM287.5 195.612C303.139 195.612 318.382 196.255 333.208 197.342C343.41 211.995 353.379 227.54 362.879 243.993C371.226 258.451 378.779 272.886 385.654 287.141C378.707 301.585 371.027 316.215 362.564 330.872C355.116 343.774 347.337 356.028 339.43 367.843C322.682 369.243 305.329 370.022 287.5 370.022C269.242 370.022 251.499 369.197 234.38 367.731C226.605 356.086 218.957 344.017 211.627 331.321C203.184 316.698 195.541 302.095 188.605 287.68C195.57 273.184 203.248 258.499 211.739 243.791C221.189 227.424 231.129 211.969 241.275 197.387C256.262 196.276 271.681 195.612 287.5 195.612ZM362.812 200.217C381.769 202.582 399.568 205.866 416.134 209.808C411.219 225.921 405.164 242.751 397.828 260.12C393.065 250.938 388.132 241.725 382.802 232.493C376.342 221.305 369.615 210.639 362.812 200.217ZM210.953 200.397C204.294 210.624 197.741 221.083 191.412 232.044C186.014 241.395 180.978 250.732 176.161 260.03C168.889 242.766 162.871 226.031 157.99 210.01C174.432 206.061 192.128 202.789 210.953 200.397ZM438.887 215.917C447.039 218.384 454.912 220.958 462.134 223.778C484.101 232.358 501.477 242.518 512.738 252.91C524 263.303 528.888 273.214 528.888 282.828C528.888 292.443 524 302.354 512.738 312.746C501.477 323.139 484.101 333.298 462.134 341.878C454.109 345.013 445.291 347.855 436.124 350.548C429.585 330.322 421.238 309.221 411.305 287.68C422.726 262.949 431.953 238.835 438.887 215.917ZM135.731 216.029C142.586 238.719 151.694 262.592 162.954 287.073C152.955 308.74 144.568 329.961 138 350.301C129.156 347.679 120.637 344.913 112.866 341.878C90.8994 333.298 73.5235 323.139 62.2617 312.746C50.9999 302.354 46.1123 292.443 46.1123 282.828C46.1123 273.214 50.9999 263.303 62.2617 252.91C73.5235 242.518 90.8994 232.358 112.866 223.778C119.977 221.001 127.718 218.464 135.731 216.029ZM287.5 230C255.88 230 230 255.88 230 287.5C230 319.12 255.88 345 287.5 345C319.12 345 345 319.12 345 287.5C345 255.88 319.12 230 287.5 230ZM176.431 314.7C181.269 324.045 186.3 333.423 191.727 342.821C195.972 350.175 200.308 357.333 204.709 364.361C189.265 362.22 174.584 359.509 160.798 356.298C165.182 342.87 170.427 328.932 176.431 314.7ZM398.12 314.7C404.148 328.966 409.396 342.926 413.798 356.388C399.968 359.595 385.242 362.297 369.752 364.429C374.211 357.314 378.614 350.067 382.914 342.619C388.3 333.29 393.312 323.977 398.12 314.7ZM154.172 378.624C174.985 383.555 197.544 387.342 221.465 389.81C237.433 412.906 254.069 433.659 270.812 451.802C263.325 459.102 255.905 465.952 248.643 471.86C229.947 487.067 212.225 497.393 197.454 502.182C182.683 506.97 171.66 506.339 163.448 501.598C155.237 496.857 149.189 487.63 145.951 472.444C142.713 457.257 142.802 436.762 146.625 412.967C148.359 402.172 150.951 390.613 154.172 378.624ZM420.446 378.714C423.694 390.776 426.294 402.378 428.038 413.236C431.864 437.052 431.959 457.573 428.712 472.803C425.464 488.033 419.39 497.352 411.103 502.137C402.815 506.922 391.685 507.546 376.872 502.743C362.059 497.941 344.328 487.597 325.616 472.376C318.302 466.426 310.83 459.52 303.29 452.161C320.145 433.948 336.898 413.089 352.974 389.855C376.955 387.404 399.577 383.639 420.446 378.714ZM251.473 392.168C263.28 392.812 275.244 393.246 287.5 393.246C299.351 393.246 310.926 392.838 322.359 392.235C310.672 408.004 298.759 422.339 286.894 435.248C275.035 422.312 263.145 407.951 251.473 392.168Z" fill="#5DD3F3"/>
</svg>
