<svg width="575" height="575" viewBox="0 0 575 575" fill="none" xmlns="http://www.w3.org/2000/svg">
<path d="M404.792 24.168C387.542 24.168 372.583 27.582 358.792 31.041C382.96 41.373 397.919 54.041 405.96 59.791C424.377 75.873 434.709 92 453.127 118.459C456.542 124.209 462.292 132.25 465.751 144.873C469.209 156.373 469.209 165.582 469.209 174.791C469.209 187.459 468.042 197.791 466.874 208.123C465.751 216.209 465.751 219.668 464.627 221.959C464.627 223.127 464.627 224.25 463.459 226.541C463.459 232.291 463.459 234.627 464.627 239.209C464.627 243.791 465.751 248.418 465.751 256.459C466.918 271.418 466.918 281.75 464.627 294.373V299C462.292 309.332 460.001 319.709 454.251 328.873C455.418 331.209 456.542 332.332 457.709 334.623C463.459 326.582 468.042 318.541 472.624 309.377C486.459 284.041 494.501 262.209 500.251 246.127C510.583 216.209 516.333 194.332 519.792 178.25C527.833 143.75 529.001 127.668 525.542 109.25C525.542 103.5 523.251 93.123 517.501 82.791C504.833 59.791 485.292 49.459 471.501 42.541C462.292 37.959 438.124 25.291 404.792 24.168ZM155.655 29.2441C142.403 28.9746 126.231 30.457 108.083 39.082C102.333 41.418 85.0826 49.459 71.2915 67.832C62.0826 79.332 55.2095 96.582 51.7505 116.123C48.2915 133.373 47.1236 154.127 54.0415 193.209C58.6236 220.791 63.2505 239.209 72.4595 277.123C73.6275 281.75 80.5005 302.459 95.4595 348.459L96.5826 350.75C98.9185 358.791 105.792 376.041 120.751 393.291C131.083 404.791 140.292 411.709 148.377 411.709H150.624C165.583 411.709 175.96 400.209 185.124 391C185.124 389.832 207.001 363.418 215.042 354.209C213.874 353.041 211.627 353.041 210.46 351.873C196.669 343.832 186.292 331.209 178.251 317.373C164.46 292.082 165.583 266.791 167.874 254.123L169.042 234.627C164.46 203.541 165.627 173.668 171.377 143.75C175.96 118.459 181.71 93.168 202.374 66.709C209.292 57.5 217.333 49.459 225.374 43.709C207.001 35.668 187.46 31.041 167.874 29.918C164.145 29.6035 160.057 29.334 155.655 29.2441ZM300.124 39.082C294.374 39.082 288.624 39.082 282.874 40.25C259.874 44.832 238.042 57.5 220.792 79.332C203.542 101.209 198.96 121.873 194.377 146.041C192.042 155.25 192.042 163.291 190.874 172.5C197.792 166.75 207.001 159.832 220.792 156.373C228.833 154.082 249.542 147.209 266.792 157.541C272.542 161 280.583 167.918 288.624 187.459C305.874 235.75 288.669 285.209 286.377 289.791C285.21 294.373 282.919 297.832 281.751 300.123C279.46 305.873 277.169 310.5 274.877 319.709C273.71 327.75 272.542 334.668 272.542 342.709C276.001 342.709 279.46 343.832 282.874 346.123C288.624 351.873 289.792 359.959 290.96 363.373C293.251 381.791 293.251 404.791 293.251 427.791C293.251 446.209 293.251 463.459 294.374 474.959C296.71 501.418 304.751 519.791 316.251 529C324.292 535.918 334.624 535.873 340.374 537.041H342.71C359.96 537.041 387.542 525.541 397.874 509.459C403.624 500.25 405.96 492.209 408.251 480.709C409.419 473.791 409.374 470.377 410.542 463.459C410.542 460 411.71 454.25 411.71 447.377C411.71 441.627 412.833 434.709 414.001 426.623C415.169 407.082 418.583 384.127 419.751 371.459C420.918 356.5 427.792 343.832 433.542 335.791C425.501 334.623 417.46 327.75 412.877 316.25C405.96 303.582 404.792 300.123 403.624 294.373C402.501 289.791 400.21 284.041 392.124 266.791C374.874 227.709 372.627 216.209 372.627 207C371.46 194.332 370.292 177.127 384.127 165.627C404.792 147.209 431.251 148.377 445.042 152.959V150.623C442.751 141.459 438.168 134.541 434.709 129.959C417.459 103.5 408.251 89.709 392.124 75.918C385.251 70.168 368.001 56.332 342.71 47.168C331.21 43.709 317.374 39.082 300.124 39.082ZM427.252 173.938C418.897 173.354 408.251 174.791 399.042 182.877C394.46 187.459 394.46 196.668 395.627 204.709C395.627 210.459 396.751 218.5 414.001 257.627C422.042 276 424.333 281.75 425.501 286.377C426.668 290.959 427.792 293.25 434.709 305.873C435.877 308.209 437.001 310.5 439.292 312.791C441.583 309.332 442.751 303.582 443.874 294.373L445.042 290.959C447.333 280.627 446.209 272.541 446.209 258.75C446.209 251.832 445.042 247.25 445.042 243.791C443.874 238.041 443.874 233.459 443.874 226.541C441.583 223.082 441.583 221.959 442.751 219.623C442.751 217.332 443.874 213.918 445.042 207C446.209 197.791 447.377 189.75 447.377 180.541C445.042 179.373 443.918 178.25 441.627 177.127C441.627 177.127 435.563 174.521 427.252 173.938ZM247.43 178.475C240.108 177.621 231.708 180.002 226.542 181.709C213.874 185.168 205.877 193.209 200.127 197.791C196.669 201.25 193.21 204.709 189.751 209.291C189.751 217.332 190.874 225.418 192.042 233.459V234.627L189.751 257.627C187.46 267.959 186.292 287.5 197.792 307.041C203.542 318.541 211.627 327.75 221.96 333.5C228.877 338.082 238.042 341.541 248.374 343.877C248.374 335.791 249.542 326.582 250.71 318.541C253.001 307.041 255.292 301.291 258.751 294.373C259.919 290.959 261.042 288.668 263.377 285.209C264.501 281.75 280.583 238.041 265.624 197.791C262.21 188.582 258.751 182.832 254.124 180.541C252.147 179.373 249.811 178.744 247.43 178.475ZM416.157 185.033C419.167 184.854 422.042 185.123 423.209 186.291C426.668 188.582 422.042 194.332 420.874 195.5C419.751 196.668 417.46 198.959 414.001 200.127C409.419 201.25 405.96 197.791 404.792 197.791C403.624 196.623 400.21 193.209 401.377 189.75C402.501 187.459 403.669 187.459 408.251 186.291C409.958 185.707 413.147 185.168 416.157 185.033ZM243.297 194.557C247.161 194.287 250.395 195.77 253.001 196.623C256.46 197.791 259.874 198.959 259.874 201.25C261.042 204.709 257.627 207 256.46 208.123C253.001 211.582 247.251 211.627 247.251 211.627C241.501 211.627 238.042 208.168 235.751 204.709C234.583 203.541 233.46 201.25 234.627 198.959C235.751 196.668 238.042 195.5 239.21 195.5C240.647 194.916 241.995 194.646 243.297 194.557ZM454.251 345C448.501 353.041 440.459 363.418 439.292 377.209C439.292 379.5 439.292 380.668 438.124 382.959C447.333 385.25 455.418 385.25 463.459 384.127C481.877 381.791 494.501 372.582 496.792 370.291C504.833 364.541 515.209 353.041 512.874 348.459C511.751 346.168 508.292 347.291 489.874 348.459C485.292 348.459 471.501 351.918 462.292 349.627H460.001C457.709 348.459 455.418 347.291 454.251 345ZM254.124 368C251.833 371.459 248.419 373.75 246.127 376.041C236.919 381.791 225.374 386.418 213.874 388.709C203.542 392.168 197.792 392.168 197.792 395.627C196.624 400.209 208.124 405.959 213.874 408.25C233.46 416.291 253.001 411.709 256.46 410.541C258.751 409.373 264.501 407.082 270.251 403.623C270.251 391 269.127 379.5 267.96 370.291V369.123H266.792C263.333 369.123 258.751 369.168 254.124 368Z" fill="#396C94"/>
</svg>
