<svg width="575" height="575" viewBox="0 0 575 575" fill="none" xmlns="http://www.w3.org/2000/svg">
<g clip-path="url(#clip0_290_32)">
<path d="M287.5 115.048C210.833 115.048 162.917 153.369 143.75 230.012C172.5 191.691 206.042 177.328 244.375 186.899C266.249 192.361 281.882 208.234 299.192 225.795C327.367 254.39 359.986 287.5 431.25 287.5C507.917 287.5 555.833 249.179 575 172.524C546.25 210.845 512.708 225.22 474.375 215.649C452.513 210.186 436.88 194.314 419.57 176.753C391.383 148.146 358.752 115.048 287.5 115.048ZM143.75 287.5C67.0833 287.5 19.1667 325.821 0 402.476C28.75 364.155 62.2917 349.78 100.625 359.363C122.487 364.837 138.12 380.698 155.43 398.247C183.617 426.854 216.248 459.964 287.5 459.964C364.167 459.964 412.083 421.643 431.25 344.988C402.5 383.309 368.958 397.684 330.625 388.101C308.751 382.638 293.118 366.766 275.808 349.217C247.633 320.61 215.014 287.5 143.75 287.5Z" fill="#00ACC1"/>
</g>
<defs>
<clipPath id="clip0_290_32">
<rect width="575" height="575" fill="white"/>
</clipPath>
</defs>
</svg>
