<svg width="575" height="575" viewBox="0 0 575 575" fill="none" xmlns="http://www.w3.org/2000/svg">
<path d="M324.156 0C355.781 73.1777 210.773 118.369 197.297 179.328C184.943 235.346 283.457 300.438 283.547 300.438C268.588 277.258 257.582 258.166 242.578 222.094C217.197 161.09 397.154 105.881 324.156 0Z" fill="#ED272C"/>
<path fill-rule="evenodd" clip-rule="evenodd" d="M220.656 289.297C220.656 289.297 104.219 287.635 104.219 320.563C104.219 354.973 256.639 357.533 365.484 336.375C365.484 336.375 394.414 316.475 402.141 309.063C330.805 323.617 168.188 325.234 168.188 312.656C168.188 301.066 220.656 289.297 220.656 289.297ZM444.547 289.297C433.137 290.195 420.828 294.598 409.688 302.594C435.922 296.934 458.203 313.195 458.203 331.703C458.203 373.391 397.828 412.563 397.828 412.563C397.828 412.563 491.266 401.961 491.266 333.5C491.266 302.414 469.658 287.32 444.547 289.297ZM192.625 353.266C174.746 353.266 148.063 367.281 148.063 380.578C148.063 407.307 282.469 427.881 382.016 388.844L347.516 367.641C280.043 389.248 155.789 382.195 192.625 353.266ZM209.156 413.281C184.674 413.281 168.547 428.061 168.547 439.156C168.547 473.477 314.768 476.936 372.672 442.031L336.016 418.672C292.756 436.955 184.18 439.74 209.156 413.281ZM127.578 444.188C87.6875 443.379 61.8125 461.303 61.8125 476.172C61.8125 555.234 470.063 551.596 470.063 470.781C470.063 458.611 457.339 452.121 450.705 448.736C450.018 448.386 449.395 448.068 448.859 447.781C482.236 525.047 114.641 518.893 114.641 473.297C114.641 462.92 141.684 452.992 166.75 457.844L145.547 445.625C139.303 444.682 133.283 444.322 127.578 444.188ZM513.188 497.375C451.105 556.223 293.789 577.561 135.484 541.219C293.744 605.996 512.424 569.654 513.188 497.375Z" fill="#158EC9"/>
<path d="M420.469 101.344C420.469 101.344 293.25 109.52 286.781 190.828C285.172 211.094 295.849 225.984 305.744 239.783C313.527 250.637 320.826 260.816 321.281 272.406C322.135 293.924 299.719 311.938 299.719 311.938C299.719 311.938 340.508 304.166 353.266 271.328C361.241 250.795 351.465 234.015 342.169 218.06C334.972 205.706 328.064 193.848 329.906 181.125C333.949 153.229 420.469 101.344 420.469 101.344Z" fill="#ED272C"/>
</svg>
