<svg width="575" height="575" viewBox="0 0 575 575" fill="none" xmlns="http://www.w3.org/2000/svg">
<g clip-path="url(#clip0_290_34)">
<path d="M358.432 92.0003C353.041 91.8655 348.324 93.9319 345.898 99.9065C342.436 108.3 349.096 116.536 353.514 121.998L353.515 121.999C354.369 123.056 355.139 124.008 355.736 124.838C356.309 125.632 356.92 126.448 357.544 127.282L357.545 127.283C359.711 130.177 362.033 133.28 363.463 136.383C364.139 137.86 364.494 139.337 364.854 140.837C365.141 142.029 365.431 143.236 365.889 144.469C368.291 150.917 372.038 158.196 375.2 164.339L375.218 164.375C375.42 164.767 375.62 165.155 375.816 165.537C377.479 168.772 379.32 172.141 381.432 175.016C381.863 175.595 382.392 176.072 382.92 176.547C383.989 177.509 385.054 178.468 385.295 180.272C383.886 182.268 383.34 184.973 382.793 187.686C382.502 189.126 382.211 190.567 381.791 191.907C376.311 209.201 378.377 230.719 386.328 243.477C388.799 247.43 394.594 255.83 402.5 252.641C407.458 250.613 408.078 245.538 408.759 239.965C409.028 237.762 409.307 235.481 409.867 233.28C410.029 232.663 410.098 232.099 410.162 231.575C410.274 230.649 410.371 229.848 410.945 229.102V229.461C413.012 233.684 415.123 237.907 417.234 242.084C421.951 249.631 430.262 257.492 437.27 262.838C438.571 263.818 439.775 265.058 441.001 266.319C443.201 268.583 445.471 270.919 448.5 271.957V271.598H448.141C447.576 270.694 446.797 270.127 446.007 269.552C445.541 269.213 445.07 268.87 444.637 268.453C441.896 265.758 438.842 262.389 436.596 259.289C430.172 250.619 424.512 241.096 419.391 231.213C417.257 227.14 415.358 222.697 413.548 218.466C413.263 217.797 412.979 217.134 412.697 216.479C412.432 215.859 412.253 215.142 412.074 214.424C411.709 212.956 411.343 211.482 410.227 210.819C409.362 212.158 408.35 213.395 407.331 214.64C405.65 216.695 403.95 218.774 402.859 221.375C400.605 226.756 399.911 233.107 399.18 239.786L399.18 239.788C399.008 241.361 398.834 242.953 398.637 244.555C398.439 244.626 398.33 244.656 398.264 244.675C398.241 244.681 398.223 244.686 398.208 244.691C398.19 244.697 398.176 244.703 398.164 244.71C398.146 244.721 398.131 244.737 398.106 244.764L398.092 244.779C398.081 244.792 398.067 244.807 398.051 244.824C398.028 244.849 397.999 244.878 397.963 244.914C393.396 243.783 391.565 239.331 389.881 235.238L389.734 234.88C389.662 234.705 389.59 234.531 389.518 234.358C384.936 223.442 384.037 205.832 388.125 193.299C388.343 192.607 388.725 191.605 389.175 190.426C390.855 186.019 393.477 179.142 391.988 176.768C391.416 174.85 389.968 173.461 388.563 172.113C387.763 171.346 386.976 170.591 386.373 169.76C384.262 166.93 382.195 163.201 380.758 159.922C379.078 156.122 377.442 152.054 375.791 147.95C373.735 142.836 371.655 137.664 369.438 132.879C367.815 129.325 365.229 125.771 362.851 122.503C362.464 121.971 362.082 121.446 361.711 120.93C360.781 119.643 359.819 118.465 358.867 117.297C356.827 114.798 354.827 112.349 353.266 108.981C352.502 107.274 351.379 104.489 352.592 102.692C352.951 101.479 353.49 100.985 354.703 100.58C356.725 99.0081 362.385 101.075 364.541 101.973C370.156 104.309 374.873 106.555 379.635 109.7C380.454 110.245 381.273 110.969 382.114 111.713C383.627 113.05 385.212 114.452 387.002 115H390.146C392.444 115.518 394.857 115.625 397.238 115.731C400.025 115.855 402.77 115.977 405.24 116.752C413.416 119.223 420.738 123.086 427.342 127.264C447.602 140.022 464.178 158.215 475.453 179.912C476.533 181.966 477.257 183.974 477.998 186.026C478.521 187.474 479.051 188.945 479.721 190.469C481.465 194.548 483.479 198.707 485.474 202.83C487.127 206.244 488.767 209.633 490.232 212.93L490.449 213.427C493.565 220.583 496.669 227.712 501.104 233.639C502.758 235.856 507.734 237.378 512.017 238.689C513.896 239.264 515.642 239.798 516.916 240.332C517.983 240.792 519.307 241.257 520.692 241.744C523.099 242.59 525.689 243.5 527.428 244.555C531.814 247.172 536.05 250.213 540.183 253.18C541.087 253.829 541.986 254.475 542.881 255.112C543.426 255.491 544.212 255.968 545.113 256.515C548.368 258.49 553.121 261.373 553.438 263.871C541.084 263.557 531.65 264.68 523.609 268.094C523.001 268.357 522.294 268.549 521.577 268.745C519.596 269.285 517.539 269.846 517.275 271.957C517.979 272.713 518.35 273.696 518.731 274.703C519.006 275.432 519.286 276.175 519.701 276.854C521.633 279.953 524.867 284.131 527.787 286.332C528.423 286.807 529.061 287.289 529.702 287.773C532.274 289.717 534.892 291.695 537.625 293.385C540.535 295.144 543.614 296.546 546.677 297.942C549.95 299.433 553.206 300.916 556.223 302.819C558.623 304.366 561.045 306.18 563.427 307.964L563.43 307.966C564.436 308.719 565.434 309.466 566.42 310.186C567.01 310.633 567.527 311.159 568.045 311.686C568.984 312.642 569.926 313.602 571.316 314.094V313.735C570.725 312.978 570.37 312.071 570.016 311.166C569.698 310.353 569.38 309.54 568.891 308.838L564.264 304.211C559.816 298.326 554.156 293.116 548.137 288.803C546.822 287.857 545.063 286.82 543.161 285.698C538.111 282.721 532.053 279.148 530.617 275.102L530.258 274.742C533.002 274.45 536.163 273.561 538.941 272.78C539.574 272.602 540.186 272.43 540.77 272.272C543.431 271.573 545.934 271.315 548.454 271.056C550.954 270.798 553.471 270.539 556.178 269.846C558.648 269.127 561.119 268.408 563.59 267.735V266.297C562.394 265.082 561.343 263.678 560.289 262.268C558.927 260.449 557.559 258.621 555.863 257.178C548.002 250.485 539.422 243.791 530.572 238.221C527.539 236.301 524.058 234.795 520.619 233.307C518.507 232.393 516.411 231.486 514.445 230.494C513.837 230.182 513.071 229.925 512.282 229.659C510.799 229.159 509.233 228.632 508.471 227.664C506.606 225.31 505.324 222.52 504.029 219.703C503.422 218.38 502.811 217.052 502.137 215.76C497.734 207.27 493.422 198.016 489.514 189.076C488.637 187.071 487.859 185.07 487.089 183.092L487.089 183.09C485.532 179.088 484.012 175.179 481.787 171.512C465.84 145.323 448.68 129.465 422.086 113.922C417.177 111.039 411.423 109.71 405.293 108.295C404.356 108.078 403.409 107.86 402.455 107.633C398.547 107.364 394.729 107.139 390.82 106.914C389.429 106.326 387.991 105.069 386.59 103.844C385.638 103.012 384.703 102.195 383.812 101.614C378.287 98.1546 367.416 92.135 358.432 92.0003Z" fill="#085466"/>
<path d="M396.48 130.094C393.92 130.049 392.078 130.408 390.146 130.813V131.172H390.506C391.243 132.702 392.346 133.899 393.441 135.088C394.147 135.854 394.849 136.616 395.447 137.461C396.031 138.697 396.604 139.932 397.177 141.167C397.749 142.402 398.322 143.638 398.906 144.873L399.266 144.514C401.422 142.987 402.455 140.516 402.455 136.787C401.929 136.261 401.665 135.643 401.392 135.004C401.199 134.552 401.001 134.09 400.703 133.643C400.098 132.774 399.184 132.137 398.278 131.505C397.638 131.059 397.001 130.615 396.48 130.094Z" fill="#085466"/>
<path d="M161 360.453C161.18 370.516 173.938 379.321 193.928 379.5H230V380.264C230 380.445 230.011 380.661 230.024 380.907C230.161 383.586 230.475 389.725 218.5 391H161V402.5H220.971C231.123 402.186 253.135 399.895 253 382.285L253.001 381.484C253.01 373.612 253.084 310.5 253 310.5H230V368L229.277 368.002C224.801 368.015 201.015 368.082 195.859 368C184.764 367.821 183.82 361.487 184 359.061V310.5H161C161.398 310.898 161.091 349.011 161.016 358.397L161.015 358.432C161.006 359.626 161 360.346 161 360.453Z" fill="#085466"/>
<path d="M301.83 276C292.756 276 264.5 277.078 264.5 299V313.196C264.5 323.258 273.35 331.479 292.531 333.5C294.688 333.635 296.844 333.815 299 333.815C299 333.815 321.371 333.366 322 333.5C334.938 333.5 333.5 343.563 333.5 345V356.5C333.5 358.073 333.141 368 321.865 368H264.5V379.5H322.09C329.637 379.5 336.959 377.928 342.799 375.188C352.502 370.741 356.5 364.721 356.5 356.815V340.373C356.5 322.719 334.578 322 322 322H299C289.971 322 288.578 316.52 287.5 310.5V299C288.578 294.418 290.6 288.219 298.596 287.5H356.5V276H301.83Z" fill="#EA7F09"/>
<path fill-rule="evenodd" clip-rule="evenodd" d="M390.775 276C373.795 278.336 367.82 286.782 367.82 299V356.5C367.82 367.686 374.064 374.424 386.912 377.928C391.225 379.141 395.133 379.635 398.816 379.635L424.422 379.5H439.471L452.273 391H478.148L460.359 374.963C468.715 371.504 471.32 366.203 471.32 356.276V299C471.32 286.782 463.369 278.336 446.389 276H390.775ZM434.08 287.5H404.477C395.492 287.5 390.82 294.059 390.82 300.168V356.5C391.988 362.071 396.48 368 404.477 368H426.803L414 356.5H440.055L446.299 362.25C446.299 362.25 448.5 360.453 448.5 356.5C448.5 352.547 448.32 299 448.32 299C447.152 293.789 441.896 287.5 434.08 287.5Z" fill="#EA7F09"/>
<path d="M483 276V356.006C483 369.887 490.861 377.703 511.66 379.276C512.129 379.297 512.6 379.322 513.072 379.346L513.077 379.347C514.551 379.423 516.038 379.5 517.5 379.5H575V368H521.857C509.998 368 506 363.014 506 355.916V276H483Z" fill="#EA7F09"/>
<path d="M21.4727 275.955C18.0137 276.09 14.2402 276.764 10.1523 278.067C3.32422 280.133 -0.0449219 284.221 -0.0449219 292.532V379.5H23V294.643L54.9395 367.192C58.8926 376.221 64.2832 379.455 74.8399 379.455C85.4414 379.455 90.6074 376.221 94.5605 367.192L126.5 296.485V379.5H149.5V292.532C149.5 284.221 146.176 280.133 139.303 278.067C122.951 272.901 111.945 277.348 107.004 288.534L74.2109 362.295L42.4961 288.534C38.9023 280.133 31.7148 275.551 21.4727 275.955Z" fill="#085466"/>
</g>
<defs>
<clipPath id="clip0_290_34">
<rect width="575" height="575" fill="white"/>
</clipPath>
</defs>
</svg>
