<svg width="575" height="575" viewBox="0 0 575 575" fill="none" xmlns="http://www.w3.org/2000/svg">
<path d="M538.119 254.033L320.967 36.8809C311.758 27.627 299.629 23 287.5 23C275.371 23 263.242 27.627 254.033 36.8809L211.088 79.8262L264.23 132.969C281.885 122.592 304.885 124.838 320.023 139.977C335.162 155.115 337.363 178.115 326.986 195.725L379.23 247.969C396.885 237.592 419.885 239.838 435.023 254.977C452.992 272.945 452.992 302.055 435.023 320.023C417.055 337.992 387.945 337.992 369.977 320.023C354.838 304.885 352.592 281.885 362.969 264.23L310.725 211.986C306.996 214.187 303.088 215.805 299 216.838V358.117C318.811 363.238 333.5 381.072 333.5 402.5C333.5 427.926 312.926 448.5 287.5 448.5C262.074 448.5 241.5 427.926 241.5 402.5C241.5 381.072 256.189 363.238 276 358.117V216.838C268.318 214.861 260.996 211.043 254.977 205.023C239.838 189.885 237.637 166.885 248.014 149.275L194.826 96.0879L36.8809 254.033C18.373 272.496 18.373 302.504 36.8809 320.967L254.033 538.119C263.242 547.373 275.371 552 287.5 552C299.629 552 311.758 547.373 320.967 538.119L538.119 320.967C556.627 302.504 556.627 272.496 538.119 254.033Z" fill="#F44C27"/>
</svg>
