<svg width="49" height="49" viewBox="0 0 49 49" fill="none" xmlns="http://www.w3.org/2000/svg">
<circle cx="24.5" cy="24.5" r="24.5" fill="#242126"/>
<path d="M20.9986 30.9742L16.2306 24.8606V37H12.4571V17.1089H14.8558L21.5836 26.2939L27.6972 17.1089H30.0081V37H26.1761V25.5334L22.4612 30.7694L20.9986 30.9742ZM33.1264 29.8626L32.6291 16.4654H36.1685V31.2667L33.1264 29.8626ZM34.6182 32.7293C35.2227 32.7293 35.7298 32.934 36.1393 33.3435C36.5683 33.7531 36.7828 34.2601 36.7828 34.8646C36.7828 35.4692 36.5683 35.9762 36.1393 36.3857C35.7298 36.7952 35.2227 37 34.6182 37C34.0332 37 33.5262 36.7952 33.0971 36.3857C32.6876 35.9762 32.4828 35.4692 32.4828 34.8646C32.4828 34.2601 32.6876 33.7531 33.0971 33.3435C33.5262 32.934 34.0332 32.7293 34.6182 32.7293Z" fill="#C4C5C9"/>
</svg>
