<svg width="20" height="20" viewBox="0 0 20 20" fill="none" xmlns="http://www.w3.org/2000/svg">
<path fill-rule="evenodd" clip-rule="evenodd" d="M16.9999 10.9998C18.6568 10.9998 19.9999 12.3429 19.9999 13.9998V16.9998C19.9999 18.6566 18.6568 19.9998 16.9999 19.9998H13.9999C12.3431 19.9998 10.9999 18.6566 10.9999 16.9998V13.9998C10.9999 12.3429 12.3431 10.9998 13.9999 10.9998H16.9999ZM6 10.9998C7.65685 10.9998 9 12.3429 9 13.9998V16.9998C9 18.6566 7.65685 19.9998 6 19.9998H3C1.34315 19.9998 0 18.6566 0 16.9998L0 13.9998C0 12.3429 1.34315 10.9998 3 10.9998H6ZM17 12.9997H14C13.4477 12.9997 13 13.4475 13 13.9997V16.9997C13 17.552 13.4477 17.9997 14 17.9997H17C17.5523 17.9997 18 17.552 18 16.9997V13.9997C18 13.4475 17.5523 12.9997 17 12.9997ZM5.99996 12.9997H2.99996C2.44768 12.9997 1.99996 13.4475 1.99996 13.9997L1.99996 16.9997C1.99996 17.552 2.44768 17.9997 2.99996 17.9997H5.99996C6.55225 17.9997 6.99996 17.552 6.99996 16.9997V13.9997C6.99996 13.4475 6.55225 12.9997 5.99996 12.9997ZM6 0C7.65685 0 9 1.34315 9 3V6C9 7.65685 7.65685 9 6 9H3C1.34315 9 0 7.65685 0 6L0 3C0 1.34315 1.34315 0 3 0L6 0ZM16.9999 0C18.6568 0 19.9999 1.34315 19.9999 3V6C19.9999 7.65685 18.6568 9 16.9999 9H13.9999C12.3431 9 10.9999 7.65685 10.9999 6V3C10.9999 1.34315 12.3431 0 13.9999 0L16.9999 0ZM5.99996 1.99996L2.99996 1.99996C2.44768 1.99996 1.99996 2.44768 1.99996 2.99996L1.99996 5.99996C1.99996 6.55225 2.44768 6.99996 2.99996 6.99996L5.99996 6.99996C6.55225 6.99996 6.99996 6.55225 6.99996 5.99996L6.99996 2.99996C6.99996 2.44768 6.55225 1.99996 5.99996 1.99996ZM17 1.99996L14 1.99996C13.4477 1.99996 13 2.44768 13 2.99996V5.99996C13 6.55225 13.4477 6.99996 14 6.99996H17C17.5523 6.99996 18 6.55225 18 5.99996V2.99996C18 2.44768 17.5523 1.99996 17 1.99996Z" fill="#C4C5C9" fill-opacity="0.8"/>
</svg>
