<svg width="30" height="30" viewBox="0 0 30 30" fill="none" xmlns="http://www.w3.org/2000/svg">
<path d="M14 5C14 5.55228 14.4477 6 15 6C15.5523 6 16 5.55228 16 5H14ZM16 2.5C16 1.94772 15.5523 1.5 15 1.5C14.4477 1.5 14 1.94772 14 2.5H16ZM16 25C16 24.4477 15.5523 24 15 24C14.4477 24 14 24.4477 14 25H16ZM14 27.5C14 28.0523 14.4477 28.5 15 28.5C15.5523 28.5 16 28.0523 16 27.5H14ZM7.31066 8.72487C7.70118 9.1154 8.33435 9.1154 8.72487 8.72487C9.1154 8.33435 9.1154 7.70119 8.72487 7.31066L7.31066 8.72487ZM6.95711 5.54289C6.56658 5.15237 5.93342 5.15237 5.54289 5.54289C5.15237 5.93342 5.15237 6.56658 5.54289 6.95711L6.95711 5.54289ZM22.8671 21.4528C22.4766 21.0623 21.8435 21.0623 21.4529 21.4528C21.0624 21.8433 21.0624 22.4765 21.4529 22.867L22.8671 21.4528ZM23.2207 24.6348C23.6112 25.0253 24.2444 25.0253 24.6349 24.6348C25.0254 24.2442 25.0254 23.6111 24.6349 23.2205L23.2207 24.6348ZM5 16C5.55228 16 6 15.5523 6 15C6 14.4477 5.55228 14 5 14V16ZM2.5 14C1.94772 14 1.5 14.4477 1.5 15C1.5 15.5523 1.94772 16 2.5 16V14ZM25 14C24.4477 14 24 14.4477 24 15C24 15.5523 24.4477 16 25 16V14ZM27.5 16C28.0523 16 28.5 15.5523 28.5 15C28.5 14.4477 28.0523 14 27.5 14V16ZM21.4535 7.31066C21.063 7.70119 21.063 8.33435 21.4535 8.72487C21.8441 9.1154 22.4772 9.1154 22.8678 8.72487L21.4535 7.31066ZM24.6355 6.95711C25.026 6.56658 25.026 5.93342 24.6355 5.54289C24.245 5.15237 23.6118 5.15237 23.2213 5.54289L24.6355 6.95711ZM8.72548 22.867C9.11601 22.4765 9.11601 21.8433 8.72548 21.4528C8.33496 21.0623 7.7018 21.0623 7.31127 21.4528L8.72548 22.867ZM5.5435 23.2205C5.15298 23.6111 5.15298 24.2442 5.5435 24.6348C5.93403 25.0253 6.56719 25.0253 6.95772 24.6348L5.5435 23.2205ZM15 20.25C12.1005 20.25 9.75 17.8995 9.75 15H7.75C7.75 19.0041 10.9959 22.25 15 22.25V20.25ZM9.75 15C9.75 12.1005 12.1005 9.75 15 9.75V7.75C10.9959 7.75 7.75 10.9959 7.75 15H9.75ZM15 9.75C17.8995 9.75 20.25 12.1005 20.25 15H22.25C22.25 10.9959 19.0041 7.75 15 7.75V9.75ZM20.25 15C20.25 17.8995 17.8995 20.25 15 20.25V22.25C19.0041 22.25 22.25 19.0041 22.25 15H20.25ZM16 5V2.5H14V5H16ZM14 25V27.5H16V25H14ZM8.72487 7.31066L6.95711 5.54289L5.54289 6.95711L7.31066 8.72487L8.72487 7.31066ZM21.4529 22.867L23.2207 24.6348L24.6349 23.2205L22.8671 21.4528L21.4529 22.867ZM5 14H2.5V16H5V14ZM25 16H27.5V14H25V16ZM22.8678 8.72487L24.6355 6.95711L23.2213 5.54289L21.4535 7.31066L22.8678 8.72487ZM7.31127 21.4528L5.5435 23.2205L6.95772 24.6348L8.72548 22.867L7.31127 21.4528Z" fill="#C4C5C9"/>
</svg>
